<mxfile host="app.diagrams.net" modified="2024-05-13T08:39:09.846Z" agent="Mozilla/5.0 (Windows NT 10.0; Win64; x64) AppleWebKit/537.36 (KHTML, like Gecko) Chrome/124.0.0.0 Safari/537.36 Edg/124.0.0.0" etag="_ZPQ2uJbQ-ysOfUkjq6o" version="24.4.0" type="github">
  <diagram name="第 1 页" id="xTMIFq4W9-x4te-idG_m">
    <mxGraphModel dx="1869" dy="1704" grid="1" gridSize="10" guides="1" tooltips="1" connect="1" arrows="1" fold="1" page="1" pageScale="1" pageWidth="827" pageHeight="1169" math="0" shadow="0">
      <root>
        <mxCell id="0" />
        <mxCell id="1" parent="0" />
        <mxCell id="LeKOd0B0I7q2kmfON0pF-6" style="edgeStyle=orthogonalEdgeStyle;rounded=0;orthogonalLoop=1;jettySize=auto;html=1;entryX=0;entryY=0.5;entryDx=0;entryDy=0;fontStyle=1;fontSize=16;" edge="1" parent="1" source="LeKOd0B0I7q2kmfON0pF-1" target="LeKOd0B0I7q2kmfON0pF-5">
          <mxGeometry relative="1" as="geometry" />
        </mxCell>
        <mxCell id="LeKOd0B0I7q2kmfON0pF-1" value="" style="shape=image;verticalLabelPosition=bottom;verticalAlign=top;imageAspect=0;aspect=fixed;image=data:image/png,/9j/4AAQSkZJRgABAQEAAAAAAAD/4QAuRXhpZgAATU0AKgAAAAgAAkAAAAMAAAABAAAAAEABAAEAAAABAAAAAAAAAAD/2wBDAAoHBwkHBgoJCAkLCwoMDxkQDw4ODx4WFxIZJCAmJSMgIyIoLTkwKCo2KyIjMkQyNjs9QEBAJjBGS0U+Sjk/QD3/2wBDAQsLCw8NDx0QEB09KSMpPT09PT09PT09PT09PT09PT09PT09PT09PT09PT09PT09PT09PT09PT09PT09PT09PT3/wAARCAHZAdoDASIAAhEBAxEB/8QAHwAAAQUBAQEBAQEAAAAAAAAAAAECAwQFBgcICQoL/8QAtRAAAgEDAwIEAwUFBAQAAAF9AQIDAAQRBRIhMUEGE1FhByJxFDKBkaEII0KxwRVS0fAkM2JyggkKFhcYGRolJicoKSo0NTY3ODk6Q0RFRkdISUpTVFVWV1hZWmNkZWZnaGlqc3R1dnd4eXqDhIWGh4iJipKTlJWWl5iZmqKjpKWmp6ipqrKztLW2t7i5usLDxMXGx8jJytLT1NXW19jZ2uHi4+Tl5ufo6erx8vP09fb3+Pn6/8QAHwEAAwEBAQEBAQEBAQAAAAAAAAECAwQFBgcICQoL/8QAtREAAgECBAQDBAcFBAQAAQJ3AAECAxEEBSExBhJBUQdhcRMiMoEIFEKRobHBCSMzUvAVYnLRChYkNOEl8RcYGRomJygpKjU2Nzg5OkNERUZHSElKU1RVVldYWVpjZGVmZ2hpanN0dXZ3eHl6goOEhYaHiImKkpOUlZaXmJmaoqOkpaanqKmqsrO0tba3uLm6wsPExcbHyMnK0tPU1dbX2Nna4uPk5ebn6Onq8vP09fb3+Pn6/9oADAMBAAIRAxEAPwD2WiiigAooooAKKKKACiiigAooooAKKKKACiiigAooooAKKM0ZFABRTdwVck8etY+oeKtMsCVabzZAfuRDcf8ACpckt2VCEpu0Vc2Dz2oztGSRiuFvPHN1KSLOBIB/ekO4/l0rCu9Uvr5j9qu5ZAf4S2F/If8A16xliYrRanfSyyrLWWh6Pd69p1kSJ7yJWHBUHJH4Csi58dWMeRbwzzsDjONoP51woAH/ANYUVg8VJ7I7oZVTXxts6ifx3ePkQWsUYPQsxJrOn8VatOMNcRqP9mIf1zWRRWbqzfU6o4KjHaKJrm7uLv8A4+JTJ2yQB/IVAEUYAHAGMZpaKzbb3ZvGEVskhcmjJpKKRYuT/ntSHB96KKE2thNJ7hHmJ98Z2t69a0YfEGpwEFLrgDgMi/4VnUVSk1syZUqct0mdDD411SP/AFq28o/3Sv8AjWjB49TIFzZMvqyOD+hrjaK0Vea6nNLAUJfZt6Ho1t4v0m5wDOYWPRZVI/8ArVrQ3cFygaGaORT3Rga8j/zzSxs0Th42aNxwGQ7cflWkcU1ujknlMXrB29T2Gkrzaz8UapZ4H2gToP4ZRn9ev863rLx1bybVvrd4Serp8y/410RxEJdThqZfWp62uvI6wfSlqnZ6laX6b7W4jkH+yeR+Harea1TTOJprRqwtFGaKYgooooAKKKKACiiigAooooAKKKKACiiigAooooAKKKKACiiigAooooAKKKKACiiigAooooAKKKKACiijNABSUySVIkLyMFUDJJOAK5bVfGsUJaLTkEzA48xuE/D1/lUSnGGrZrSozqu0Fc6eeeK3iMk0iRoByzHAFcxqXjiCLKafEZ2H8bfKn+Jrkby/utRk8y8maRuwP3R9B2qvXJUxLekT2KGVxWtR69i9f6zf6mxF1csYz/yzT5V/IdfxqjgDp09BxRRXM5N7s9OFONNWirLyCiiikWFFFFABRRRQAUUUUAFFFFABRRRQAUUUUAFFFFABRRRQAUUUUALG7ROHjZkcdGQ7SPyre0/xhqFn8txi6jH975WH4jr+NYFFXGco6pmNWhSqq01c9L03xLp+plUSXypT/wAs5OD+Hr+Fa2RivHsZ61s6X4ov9Nwjv9pgH8Eh5H0b/HNdVPE3+I8mvlbSvSd/I9JFLWRpXiKy1YAQvtlxkxPww/x/CtbPtXUpJq6PKnCUHaSsxaKKKZIUUUUAFFFFABRRRQAUUUUAFFFFABRRRQAUUUUAFFFFABRRRQAUUUUAFFFFABRRUckqRIXkcKijJJPAoDcdnnFY+s+JbXSPkJ824xxEp5/H0FYOueMXm3W+lnbH0M/c/wC6P61yhJJLEksxyWJyTXLUxCWkT1cLlzn71TRdupf1TWrzVnzcyYjB4iX7o/xP1qhRRXFKTk7s9unTjTVoqyCiiikWFFFFABRRRQAUUUUAFFFFABRRRQAUUUUAFFFFABRRRQAUUUUAFFFFABRRRQAUUUUAFFFFAAMghgSrKchgcEV0uj+MprRlh1EGaH/nqB8y/X1/nXNUVcJyg9GYVsPTrK0ket215DeQLNbyrJGwyGU5qevKNO1O60ufzbSQjn5kP3W+o/rXfaL4kttYQIP3VyB80TH9R6iu6nWU99GeDicDOj7y1RtUUmaAa3OEWiiigAooooAKKKKACiiigAooooAKKKKACiiigAooooAKKKKACkorM1fWoNHtt8x3SNwkYPLH/Pek5JK7KjBzajFXZPqOpW+mWrT3ThVHQDqT6AdzXn2ta/c6zIVcmK2B+WEHr7n1Pt0qrqOo3OqXRnumyf4UH3UHt/j3qpXBWruWi2PoMHgI0kpT1f5BRRRWB6N2FFFFIAooooAKKKKACiiigAooooAKKKKACiiigAooooAKKKKACiiigAooooAKKKKACiiigAooooAKKKKACiiigApVZo3V0ZldTlWU8g+1JRTE1c7PQPFwm2WupsFkPCTdA/19D+ldcpzXj3UEHoeua6bw74qeyKWuoOWt/upKeqfX1HvXXRr9JHi4zL7J1KS9Ud7RTEYOAwOVPIIPWn12HjhRRRQAUUUUAFFFFABRRRQAUUUUAFFFFABRRRQAUlL3rL1nWIdHtDLIQ0jcRxjq5/z3pNpK7KjFzajFasZrmuQ6Nbbnw8zcRxg8t/8AW9685u7ue+uGuLpy8jHueFHoPQUt5eTahdvc3LbpHPboo9B7VBXnVazm/I+jweDVBXerYUUUVidwUUUUAFFFFABRRRQAUUUUAFFFFABRRRQAUUUUAFFFFABRRRQAUUUUAFFFFABRRRQAUUUUAFFFFABRRRQAUUUUAFFFFABRRRQAUUUUAdD4b8SNprLa3jFrNjhWPJi/+x/lXfxsGG5SCp5BBrx+uk8MeIjYutleOTbMcRuT/qz6fQ/pXXRrdJHj47A3vUpr1R39FNVhtp1dp4gUUUUAFFFFABRRRQAUUUUAFFFFABRRTJJFjQuxAUDJJ7UBuV9Rv4dNs3uZ2wqDt1J9B715lqWozaretc3B68IoPCL6f/Xq54i1ttZvfkJFrEcRL/eP97/CsivPr1uZ2WyPocBg/ZR55rV/gFFFFc56QUUUUAFFFFABRRRQAUUUUAFFFFABRRRQAUUUUAFFFFABRRRQAUUUUAFFFFABRRRQAUUUUAFFFFABRRRQAUUUUAFFFFABRRRQAUUUUAFFFFABRjOffjmiigDr/CXiE5XTrx8npA7Hk/7J9/SuzGK8d5BBBIIOQQcYr0Pwvrv9q2nkzkfaoRh+28f3q7sPWv7rPBzDB8j9rBaPc6Cik9aWuo8oKKKKACiiigAooooAKKKDQA0nHpXB+MPEZmvG021kxCnyzOp+83936ev5VveK9dGj6YRER9qnBSMDqPVvw/nXmBJJJJJJPJJzmontY8zGZg8PUiobp3Zc9KKZC+9PccH3p9eZKLi7M+9wmJhiqMasOq+4KKKKk6QooooAKKKKACiiigAooooAKKKKACiiigAooooAKKKKACiiigAooooAKKKKACiiigAooooAKKKKACiiigAooooAKKKKACiiigAooooAKKKKACiiigAqazvJtPu47qA4eM9P7w9D7VDRTTad0TKKlFxlsz1fTtQi1KyjuYT8rjOPQ+lXK858Kaz/AGbf+RK2La4OMn+F+x/HpXo1enSmpxufL4vDuhUcenQKKKK0OYKKKKACiiigAqOWRIY2kkYKigkk9hTzXGePdYMNsmnRN883zSYPRB2/E/oKL2Ma9ZUoOb6HJ65qrazqktyciMfLEDxtUf1PX8az6KKhnyFSo5ycpbsdG2xwfzq3wee1UqsW8mRt9Olc1endXR9VwzmXsqjw03pLbyZLRRRXIffBRRRSAKKKKACiiigAooooAKKKKACiiigAooooAKKKKACiiigAooooAKKKKACiiigAooooAKKKKACiiigAooooAKKKKACiiigAooooAKKKKACiiigAooooADzwa9D8Kax/aenCOZibiD5XJ/iHY/0+orzyr2i6m2kanFc8+WTslHqp/wAOtbUKnJLyZxY7D+2pvutUeq0U1GDqrAggjII706vSPmQooooAKKKD0oAiuJo7aB5pGCoilmJ7AV49qV8+p6hPeSdZGyB6L2H4Cu18f6p5NhFYRt89wdzY7IP/AK+PyrgKmT6Hz+a17yVJdNwoooqTxgpUJBBHakooZdOUoSUouzWqLgcOAR3parwvglT0NWK8+pDlZ+q5Rj447DqfVaMKKKKzPUCiiigAooooAKKKKACiiigAooooAKKKKYBRRToopJ3EcMbyueyKW/lQk3ohNpK7G0Vt2nhHVbnBaJLdfWR+fyH/ANatWHwD8v8ApN+2f+maY/nmtFRm+hyzx1CGjlf0OPorvk8DaaAN73Dt6+Zj+VO/4QXSvW4/7/Gr+rT8jD+1KPmef0V6B/wg2lf9PP8A39NH/CDaV/08/wDf00fVZ+Qf2pR8zz+iu8m8C2DJiGa4ib1Lbv51Rl8C+XkrdSyAegUVnUozgr2b9C45lQl1aORoro28LRRnD3E6n0Kj/Ck/4RiH/n5m/Jf8K4pYqnF2loarF03qrnO0V0X/AAjMP/P1N+S/4Uf8IzD/AM/U35L/AIUvrlLuP61DzOdorov+EZh/5+pvyX/Cj/hGYf8An6m/Jf8ACj65S7h9ah5nO0V0X/CMw/8AP1N+S/4Uf8IzD/z9Tfkv+FH1yl3D61DzOdorov8AhGYf+fqb8l/wo/4RmH/n6m/Jf8KPrlLuH1qHmc7RXRf8IzD/AM/U35L/AIUf8IzD/wA/U35L/hR9cpdw+tQ8znaK6L/hGYf+fqb8l/wo/wCEZh/5+pvyX/Cj65S7h9ah5nO0V0X/AAjMP/P1N+S/4Uf8IzD/AM/U35L/AIUfXKXcPrUPM52iui/4RmH/AJ+pvyX/AAo/4RmH/n6m/Jf8KPrlLuH1qHmc7RXRf8IzD/z9Tfkv+FH/AAjMP/P1N+S/4UfXKXcPrUPM52iui/4RmH/n6m/Jf8KT/hGYeP8ASZvyWj65S7h9ap+ZueDNT+16cbWRsy2x2gk9V7f4fhXTVx+g6SmmaskyXMpDKUKkDDf5PNdfmvYwmIjWhddD57FxiqrcdnqLRRRXUcwUhxtOelLWN4p1E6boNxKpxIy+XHz/ABHj9Ov4UEVJqEXLsed+ItS/tTXLi4BzGreXHg/wj/E5NZlAGMD0orM+Nq1HUm5vdsKKKKDMKKKKACrcb70z3HBqpT4n2P7HrWVaHNHTc93IcxeDxCjJ+7LRlqiiiuA/T1Z6oKKKKACiiigAooooAKKKKACiij6+uPrTAKs2On3WpyeXZwtIwOGb+Ffqa3NE8IS3irPqW6GFhkRDhmHv6fzrt7e1htYVit40ijUYCqMAV0U8M5K8tjy8TmUKb5aau+5zOm+BoYsPqEpnb/nmpwg/qa6W2tILOMR28SRIP4VXFTUtdkacYrRHi1a9Sq7ydwA5paTNUbrWbCzOJ7uFG/u7ufyrRRcnZIxckty9RWFL4y0uP7ryyf7sZ/rVf/hObD/n3uv++V/+KrVYaq/sszdaC6nTUVzP/CdWP/Ptdf8AfK//ABVH/CdWP/Ptdf8AfK//ABVP6tW/lYvb0+501BrItPE+l3ZCrcCNz/DJ8p/WtVXV1DKQQehBrKUJR0krGkZRlsxkkMcq4kUMPcVn3OlEZaA5/wBljWpmlrkrYWlWVpLXuawqSg9GcyyNG5VgQw6qRSV0Fxax3KYkHI6EdRWNdWj2z/NypPDD/PWvnsXl06GsdUd1Kup6PRkFFFFeadAUUUUAFFFFABRRRQAUUUUAFFFFABRRRQAUUUUAFFFFABkjkcEcg+ldBbS+dAjjuOfaufrT0iXh4vT5hXrZTWcKrg9n+Zy4qF437GpRRRX0xwCVwXxDv989rYqeEBlcD16L/Wu9NeReIbw32vXkxJKiQovPQLx+XBP40m9Dzc0qclHl7mbRRRUHzAUUUUAFFFFABRRRQBZhk3jHcVJVNW2EGrgOVB9a4a1Pld1sz9J4dzFYqgqc370dPVBRRRWJ9GFFFFABRRRQAUUUf59c0wFVSzqiKzOxwqgck/413Phvwqtnsu79Ve5xlUPIj/xPvR4V8N/Y1W9vEH2lh8in/lmD/WuoFdlGikuaW54OOxzm3TpvTq+4mB+dOpMVka14gg0ePacS3BHyxg/qfQV2wg5tRirs8iUlFXZpT3EVvC0k7rGijlmOAK5nUfG0ceU0+HzT/wA9JOF/AdT+lczqGp3WqTb7uTIB+WMcKv0Hr7mqtevQy6KV6mr7HBVxbekdC3d6tfXxJuLpyP7qnaPyFUwFHAAA9hilor0oU4wVoqxySk27sKKKKskKKKKACrFnqV3p5Btbh4wP4c5X8jVeiolCM1aSuioya20Ox0vxnFKRFqCCJz/y0TlD9fSuojkSVA6MGUjIIPBryatDStautIk/cnfAT80LHj8PQ15mIy5fFS+47KOLa0memVHJGsiFXGVIwQaqaZq1vqtuJbd844ZD1U+9XhXjzi1eMkd8ZXV0YV5ZtavuXJjPQ+lVq6SSNZEKsAVIwQawru2NtLt6oeVPr/8AXr5rMcD7J+0hs/wPQoVub3ZbkFFFFeQdQUUUUAFFFFABRRRQAUUUUAFFFFABRRRQAUUUUAFTWUvk3SNngnB/GoaT6de1a0puE1JdGTJKUWmdQKKitpPNgR/VQalr7WElKKkeQ9Clq119h0q5ucjMcbMM+uOP1rxsdBnr3r0vx5cmHw80YIzNIqEH06/0rzWiR89m871FDsFFFFSeOFFFFABRRRQAUUUUAFT28n8B+oqClBKkEdRUVIKasz0MtxssHiI1Vts/QuUUiOHANLXntNOzP1ilVjVgpwd01dBRRRSNAooopgFdN4R0MXs39oXC5hib90CPvN6/h/OsLT7GTUr+K0jyDIfmYfwr3P5V6naW8dpbRwRKFSNdqge1dGHp8z5meXmOJdOKpxer3JR0paWsnXdYXSbIuMNM/wAsSHufX6CvQhFzailqz56UlFXZV8ReIhpiGC2KtdsOO4jHqf8ACuEkkeWRpJHZ5GOWZjkmlkkeaR5ZmZ5HO5mPem19FhcNGhHz6s8qtWdR+QUUUV1mAUUUUAFFFFABRRRQAUUUUAFFFFAE9nfT6fdC4tn2uOoPRh6H2r0XSdWh1azWeI4P3XQnlW7ivM6uaVqcukX63CZaPG2RAfvL/iOtcGMwqqrmjujpw9d03Z7HqFV7qBbiEoevY+hp9vPHc28c0TBkdQykdwafivnZwU04SW56qdrNHNuhRyrDDA8ikrS1WDpOo9mrNr4/FYd0Kri/kepSnzxuFFFFcxqFFFFABRRRQAUUUUAFFFFABRRRQAUUUUAFFFFMDY0l82xX+6SKv1kaQ2JpF9VBrXr67LqnPh4vtoeVXXLNnCfEecGSxt+cjdIf5VxVdL4+maTxEsZ+7HCMfic/0rmq65bnyGYS5sRL7goooqThCiiigAooooAKKKKACiiigCWGTBwehqxVKrUT709xwa5K8LO6PuuF8yunhZvVbf5D6KKK5j7IKKKckTTzJDGMvIwRfx4ppXdkJtJXZ2ngbTdltJfyD5pvlTI6KP8AE/yrq8VDZ2yWdpFBGPkjUKPwqfNepTioxSPkq9V1ajk+oySRYkZ3IVFBJJ7V5pq+pPquoSXDEhM7Yl/ur/ietdR4z1EwWCWcZ+a4PzY7IOv58D864qvay2ho6r+R5WLqaqCCiiivXOEKKKKACiiigAooooAKKKKACiiigAooooAKKKKAOp8GapslfTpGypy8WT09R/X867OvJobh7WeO4hOJI2DD3x/Q16laXMd3aRXEZykihh+NeBmNHknzJaM9PCVOaPK90PljEsbI3QjBrnGQpIUbqpwa6esTVItl0HHRx+or5jN6N6aqLdHqYadpW7lOiiivmz0AooooAKKKKACiiigAooooAKKKKACiiigAooooAsWDbb1OeuRW/XOQnbPG3owroc19Hk8/3TT6M4MVH3jyjxTMZ/El0x/h2KP++Qf6msirOo3H2m/ml5+Yjr/ugf0qtXrHwVeV6kn5hRRRSMQooooAKKKKACiiigAooooAKfE+xx6d6ZRSaummb4evOhUVWDs0y7RUcLgjbnkdKkrzppxbR+tYHFwxdCNWPX8GFbfhG1+1eIInI+WBTIfr0H8yfwrErsPAMAze3HfKxj+f9auirzQY6fJQk110OywaMUtQ3k4trWWZjgRoWJ+gr00rux8s3ZXPO/EV6b3XLhs5SM+WuD2HX9c1m0ZZ/mb7zHcfqeaK+qpQUIKK6I8ScuaTYUUUVoSFFFFABRRRQAUUUUAFFFFABRRRQAUUUUAFFFFABXb+C7rzdLktyeYHwMn+E8j+o/CuIrofBVwY9WlhyAskWcepB4/QmuHH0+ai/LU6MLK00d1VDVoy1qH7q3/1qv1BeoZLOVR12nFfMYmHPRlHyPYg7STMAUUD+dFfFnrhRRRSAKKKKACiiigAooooAKKKKACiiigAooooAXOOfTmt7zKwD0NaXnf7Venl8+XmRz14czR5GCTySST1JpaQdBS19KfnFT4n6hRRRQQFFFFABRRRQAUUUUAFFFFABRRRQAqNtINWwcgEdDVOpreTkqe/SuevC6ut0fU8NZj7Ct7Cb92W3kyeu+8CIBojuOrTNn8OK4Gu/wDAv/IBP/Xd/wCdZ4b4/kfY5o/3HzOkrJ8TSeV4evD6pt/M4/rWtWJ4v/5Fu4/3k/8AQxXqUVepFeaPmqvwP0PPqKKK+qPFCiiigAooooAKKKKACiiigAooooAKKKKACiiigAooooAK1PDLbfElqfXcp/75rLrQ0EE6/Zbf+emT+VY4hXpSXkzSn8a9T0yo5RmFx/smpKa5AQk9AK+Vl8LPaRzK8KPpS0mc80tfETVpNI9iGyCiiioGFFFFABRRRQAUUUUAFFFFABRRRQAUUUUAFL5jetJSVvS6kyPN9hT5T1FFWtTt/supTQ4xtI4znHyg/wBaq19ifmdRNTafcKKKKDMKKKKACiiigAooooAKKKKACiiigAoHGCOtFFBUZOLUo7lxH3gH8DXoHgXH9gkdxM+fzrzeGQocHoa73wDNm3vIS33ZAwHsR/iK56ceSrbo0foVDHrHYBS+1GyZ11ZHiqPzfDt0P7oDfkwP9K16ralALrTbmA9JImX9K76cuWafZnDUV4tHltFIM4GevcUtfVHiBRRRTAKKKKACiiigAooooAKKKKACiiigAooooAKKKKACtXwum/xHbcEgBifbC8VlV0fgmDfqdxOekcYUfif/AKx/OubFy5aMn5GtBXqJHcVHcErbyHuFP8qkqnqrmPTpipwxG0fU18tUfLFvyPaW5hx8op7kA06l47dBwKSviG7u568VZBRRRSGFFFFABRRRQAUUUUAFFFFABRRRQAUUUUAHpRhvSg1ofZ66KMW0zKo7HnviuAweJLlT/EEYf98gf0NZFdP4+g8vxAkp6SQjH4HH9a5ivsXufnmMjyV5LzCiiikcoUUUUAFFFFABRRRQAUUUUAFFFFABRRRQAV1XgS8EesvCcfvoyOe5HI/Qn8q5XvVrTrxtN1KC6TP7pwxHt3/MZFS1ez6o9PLcY8NNp7S0aPZaDTIpFljV0IKsAwI7g085rY+lWp5frFr9i1e5h52h9y59Dz/WqldZ43sD+4vo1+7+7cjtnp+vH4iuTr6TCVfaUk/keRXhyTYUUUV1GIUUUUAFFFFABRRRQAUUUUAFFFFABRRRQAUUUUAFd34PtDb6MJmBDXDF+fToP0GfxrirG0a/v4rVM5kbaSOw7n8BXqUUSwxJEgwqKFUfSvJzKrZKmvVndg6d25MkrJ1uT5YIRj523key/wD1yK1q52+n87UJSD8kYEa/zP64H4V8xmNX2dB+Z6lKPNNIiHf60UUV8keqFFFFABRRRQAUUUUAFFFFABRRRQAUUUUAFFFFAC4zgepxW75dYkS75419WFdFtr2sso88ZSOPEys0cP8AEaAbrC4wc5aM/wA64mvS/Hlv53hx5OMwur9O3T+teaV9A9z4vNIctdvugoooqTzQooooAKKKKACiiigAooooAKKKKACiiigAo+vTvRRQB6T4H1P7boot5GzNanyzk9V/hP5fyrphXkvhzVv7H1eOZiRA/wAko9FPf8Dz+desIwdQVIIIzkVad0fVZfiPa0knuiC+tY76zlt5R8kilT7V5ld2sljdSW0wxJGcH39/oeterGuc8VaJ9ugF1bqTcQrgqP419Pr3ruwOI9lPllszXE0edXW6OHoo7Zor6BHlhRRRTAKKKKACiiigAooooAKKKKACiiigAooq7o+mHVdRjt+RGPmlYdlH+PSonNQi5PZFRi5SSR0vg3SvKgbUJl+aUYjz2T1/H+QFdVTEjWNFRAFVRgADoKfXzFaq6k3Jns04KEVFFS/uxaWUkv8AEBhR6seB+tYEaeXEFJy3Un1Pf9as6jc/a7/YpzFbnn3f/wCsP1NQV8pmmI9pUUE9EehhaenMxRRRRXlHYFFFFABRRRQAUUUUAFFFFABRRRQAUUUUAFFFFAFixXfeR+x3Vv1j6OuZnfsBitevqcphy0L9zzsTK87FLV7X7bpN1b4BMkZUZ9ccfrivHB0H05r3A9MV4/r1obHXbyDGFEhZeOoPP6Zx+FelI+czendRn8ihRRRUHghRRRQAUUUUAFFFFABRRRQAUUUUAFFFFABRRRQAfrmu+8D6959uNNuX/fQj92x/iT0+o/lXA0+GWSCaOaFyksZ3KR2NNOx1YTEOhNSW3U9sBo9axPDmvx65Z7uI7iPiSP0PqPY1t1Z9ZTqRqRUou6Zx3ifw6yM99YpkH5pYl/8AQh/hXK8V61gVy2u+FROzXOnBUl6tEeFf6ehr1MHjuVKFR6dzkxGGbfNE46ilZWikaORGSRT8ysORSV7KaeqOBprRhRRRTEFFFFABRRRQAUUUUAFFFW9O0u61Sfy7WPKg/NIwwq//AF/YVE5xgrydkVGLk7IrwQS3U6Q28bSSt0UD/PAr0PQdFTSLTBw08nMjjufQewpdG0S30iAhPnmb78pHLf4D2rUrwsXjHWfLHY9Khh1DV7i1Q1O8a1tj5WPOkOxM9j6/QDmrbyCNSzEKoGST2rCu7j7VOZBnYOFz6f8A168PH4pUKbtu9jvpU+eRWijESBAcgdz3/wDrmn0UV8k227s9NJJWQUUUUhhRRRQAUUUUAFFFFABRRRQAUUUUAFFFFABRRR14HXoKa3E+5saTHtti/dzmr9RW0flW6J6DFS19nhqfs6MYnkzd5NiGvPviFY+Xf216oG2VTGx75HI/TNeg96w/FunnUfD1wqDMkQ81Pqv/ANbNdD1RxY2l7Wi49dzyyijrjHpRWZ8iFFFFABRRRQAUUUUAFFFFABRRRQAUUUUAFFFFABRRRQBZ0+/uNNvUurVsSIcYPRh6H2r07QfENvrttui/dzr/AKyInlf8R715RUltdTWVylxbSNHKh+Vl/wA8j2qk7HoYPGyw7s9Ue1jt9KK5bw/4xh1EJb3pWG76Ak4V/oex9q6riqPpKVaFVc0XczdT0Wz1VMXEfzgfLIvDL+P9DXIah4Uv7IloB9qiHQqMN+K/4V6DSH610UMVUo/C7rsKpRhP1PJDkOUYFXHVSORRXqN3ptnfLi5t45fdl5/OsW48E2MnMEs0PoA24frXp08zg/jVjjlhJLZ3OIorqJfA1wP9Vexv/vx7f5VB/wAIVqf/AD2tPzb/AAroWNoP7Rk8PUXQ56iuiTwRqBPz3Fso9QWP9KtxeBRnNxfMR6RxgfqaTx9BdQWGqPoclU1rZXN++20gklOcEqOB+PSu6tfCel22CYTMwHWU7v06VsRxJEgSNFRR0CjGK5KmZraC+83hg3e8mcnpngvkSalJu/6ZRnj8T/QfnXV29vFbQrFBGqIowFUYAqWkrzatadV3kzshShBe6gzUcsqQo0kjBUUZJJ4AqrqmrWmkWxmu5VRccL1ZvoO9ed614hvfEVwLeINFA7BUhB5Y+rev8hj8awlJRV2YYjFQpe7u3sjoZNZPiG9ZLfcNOtyCzEY85+w+g6471a681BY2iadYxwJg7Ryw/iPc/jVivkcbiXXquXRaI9nB0pQppy3YUUUVyHWFFFFIAooooAKKKKACiiigAooooAKKKKACiiigAqeyi866RewO41BWnpMW0PKR1O0fh/n9K7MDR9rWS6bsxry5YM1BRQKK+wPMCkYAqQehFLRQB47rmnHS9ZubXGEVt0f+6eR+A6fhVGu8+IOlmS2h1GNeYjskI/unofwP864Ooasz5LG0PY1mum6CiiikcYUUUUAFFFFABRRRQAUUUUAFFFFABRRRQAUUUUAFFFFACEA9Rmug0fxhfaUBHMTdW442ufmX6N/Q1gUUzalXqUneDsesaV4k07VVAgnCyd4pPlYf4/hmtcEV4f6HuDkH0rZsPFWq6eAsdyZYxwEmG/8AXrT5u57FHN09Ki+Z6uaK4m0+IkZwL2ydDnlojuH5H/69bEHjTRZ1JN2IsHpIpWquj0oYujPaSN+iqEWsafMgZLy3KnofMFS/2nZf8/dv/wB/R/jQbKcX1LNFVTqdkOftcGP+ui1Sm8U6PAxV7+HcOwOf5UaCdWC3aRr0tcjdfEHT4l/0aKedj327R+tYd9481O5BW2WO1Q9wN7fmeP0pXRzVMwoU+t/Q9AvL62sYTJdzJEg7scVyGrePgMx6VHuPQzSDAH0Hf8f1ri7iea6kMtzM80h6s7ZplLmueVXzWc9KasvxJbm6nvJzPdTPNKf4mP6D0Fb/AIW0/wC9fSr/ALMYP6n+lYdjaPf3iW6ZG4/Mw/hHc130USQQpFGoWNBtUCvIzTFckPZrd7nXkuEdaq69TVLYfzRRRXzh9gFFFFABRRRQAUUUUAFFFFABRRRQAUUUUAFFFFABRRRQAAEsAvJJwK6K3iEMKIOwrJ0yDzLgOfup/OtuvosooWg6j67HBip3fKugUUUV7RyhRRRQBWvbSO9s5baUZSVSprx+9tJLC8mtZv8AWRMVJxjPv+Iwa9oNcN4/0fiPVIh0xHNgdux/Dp+NJq55eZ4b2lPnW6OJoooqD5oKKKKACiiigAooooAKKKKACiiigAooooAKKKKACiiigAooooAKKKKACiiigBNinqAT6kUmxf7q/lTqKB3Ymxf7q/lS9OB0oooC7CiiimIKMjHPQdaK0dE07+0dQCsMwxfPIfX2/E1nVqKnBzeyNqFF1qipx3bN7w3pv2Wz+0SriWcZ6Ywvp+PWtqkH6e3Slr5CvVdWo5M/Q8Lh44emqcegUUUVidIUUUUAFFFFABRRRQAUUUUAFFFFABRRRQAUUUUAFJ/Olq3p1v5txvYfInr61tQpOrUUF1ZE5KEWzSsbfyLdR/EeTVqkFLX2VOmqcVFdDym222wooorQQUUUUAFQXltHeW0lvMu6ORSrKe4NT0GgTSaszxrVNOl0rUZrSbOUOVY/xKehqpXpXjPQv7TsPtNuubq3BIA6svcV5r159eRUNWPlMbhnQqPs9gooopHEFFFFABRRRQAUUUUAFFFFABRRRQAUUUUAFFFFABRRRQAUUUUAFFFFABRRRQAUUUUAFFFFABgnAAJJOAB3rutH08abYJGQBM3zSkf3vT8OlYPhjThc3Ru5B+6hOFyPvN/9brXWV4OaYm7VKL0W59bkWC5YuvNavYWiiivFPpQooooAKKKKACiiigAooooAKKKKACiiigAooooAKKKKAAAuwVRkk4AroLW3FvAqd+pPqaoaXa8mZxjsoP8AOtavpMqwvJH2slq9jz8RU5nyrZBiiiivXOYKKKKYBRRRQAUUUUAIa808ZaEdNvjeQLi2uG5A/gf/AAPWvTKq39lDf2kltcKHjkGCDQ1c5cXh1XpuL36HjNFXdW0qbRtQe1mOcco+Mb19fr2qlWZ8nODpycZboKKKKCAooooAKKKKACiiigAooooAKKKKACiiigAooooAKKKKACiiigAooooAKKKKADvT4beS5nSGMEu52gD/AD0FMrqPC2nbIzfSL8zDbFkdB3P49PwrnxVdUabk9+h24DCyxNZQ6dTbtLWOytY7eL7qDBOOp7n8ampOxPrQvSvkpycpOT3Z+hQgqcVGOyFoooqCwooooAKKKKACiiigAooooAKKKKACiiigAooooAKmtbZrqYL/AADlj6f/AK6jVTI4RRlieBW7aWwtodo5J5J9TXo5fhHXnzSXur8Tnr1eVWW5MiBECqAABwKdRRX1MUkrI84KKKKoAooooAKKKKACiiigAooooAx/EGhxa5p7RNhZk+aKTHKn/CvLLm1ns7iS3uYzHNGcMD/nofWvacVz3inw0uswedb4S8jX5GPRx/dP+Pak1c8zMMF7Zc8PiR5lRTpI3ikeKRGR0O1lYcg02pPmmrOzCiiikIKKKKACiiigAooooAKKKKACiiigAooooAKKKKACiiigAooooAKKKPr0oGWtNsW1G/jgGQhPzt6L/niu9jVUVURQqIMADtWT4e037DYCR1xNONxz/CvYf1/GtevmcxxPtanKnotD7fJsF9Xpc8lrIWiiivNPaCiiigAooooAKKKKACiiigAooooAKKKKACiiimAUe3OTwMUVqafY7cSzL838Knt/9eujC4aeInyx+bMqtRQRJp9l5C73HzkflV+iivrqNGNKChHoebKTk7sKKKK1JCiiigAooooAKKKKACiiigAooooAKKKKAOY8U+Fxq8f2m1wl4g+gkHoff3rziSN4pHjkRkkQ7WVhgg17bXN+JvCsesp9ot8RXijhuz+x/wAaTVzycdgFVTqQ3PNKKkntprSd4LmIxSp95WH6/So6g+elFxbT3QUUUUEhRRRQAUUUUAFFFFABRRRQAUUUUAFFFFABRRRQAUUUUAFaugacL+/DSDMMPzPnuew/z6VlqC7hVBZmOAo7mu70uwGm2CQ8eZ96RvVv8B0rgzDE+xp2T1eh7GUYL6xWUpLRF3nNFFFfLt9z7lKwUUUUhhRRRQAUUUUAFFFFABRRRQAUUUUAFFFFABRR9M9cDFaljp+0iWYDd2X0/wDr104bCzxE+WPzZlUqqCGWFhjE0o/3VPatWjFLX1eHw8KEeWKPOnNzd2FFFFdBAUUUUAFFFFABRRRQAUUUUAFFFFABRRRQAUUUUAFIRmlooAxtd8O2uuQ/vR5c6j5JVHI9vcV5pqWlXWkXRgvI9rH7rj7rj2P9K9kqnf6fbalbGC7iWSM9j2+noaGrnn4vAwrq60Z43RW/r3hK60kma3D3FoOcgZZPqO49xWBx2Oai1tz5yrRnSfLJWCiiikYhRRRQAUUUUAFFFFABRRRQAUUUUAFFFFABRRU1rbPeXMcEQ+eQ4Ht/+qlKSinJ7IuEHOSilqzZ8L6d5sxvZB+7iOI8929fwrqdvNR21slpbRwRDCRjA9//ANdS18li8Q61Ry6dD9By/CLC0VDr1CiiiuU7gooooAKKKKACiiigAooooAKKKKACiiigApyxtK4VASx6AVJbWsly3yjC55Y9v/r1s21rHbrhR8x6k969HCZfOu1KWkTnq11HRbkFlp4gw74Z+3tV+iivpqNGFKPLBWOCUnJ3YUUUVqSFFFFABRRRQAUUUUAFFFFABRRRQAUUUUAFFFFABRRRQAUUUUAFFFFADSAR0GK5XXfBMF+WnsSttcHkjHyP9R2PuK6yih6mVWjCqrTVzxi+sLnTZzBeQNE/bPIP0Peq1ezXtjbahAYbuFJY26qw/wA4ritX8AzRbpdKfzE/54yHn8D3/Gpcex4OJyucPep6rscdRT5oZbWYxXETRSDqrjBplSeXKLi7NBRRRQSFFFFABRRRQAUUUUAFFFFAeQV1XhfTvJgN7IuHlGIwey+v41g6TYNqV+kP/LMfNIfRf/r9K7sBQAqjCqMADtXj5pieVeyT33Po8iwXPN15rRbDqKKK+fPrwooooAKKKKACiiigAooooAKKKKACijH61bttOlmwX/dqfXrW1KhUqu0FciU4wV2yoAXIVQSx6ACtK10vo056fwj+tXre1ithiNee5PU1PXvYXK4wtKrq+xxVMQ5aR0Q1UVAFUAAdgKWlor1lFJWRzBRRRVAFFFFABRRRQAUUUUAFFFFABRRRQAUUUUAFFFFABRRRQAUUUUAFFFFABRRRQAUUUUAFJS0UAUb/AEu01OLy723SVexI5H0PUVyOqfD903SaZPuHXypf6N/jXeUHpQc1bC0qy95anjF5p91p0hS8t5ITnALD5T+PSq1e2SQpOhSRFdCOQwyDXO6h4G0u8y1urWkh5zEfl/75Pb6YqXHseTWyiS1pu/kea0V0t74D1K23NbtFcoOmDtbH06ZrBurG6siRd200OO7qQPz6UrNHm1MLVp/FFkFFH0opHOFFFFABRRWt4c037bfebIuYoDkg9C3Yf1rKtVVKDm+iOjDUJV6ipx6nQaDp/wDZ9gC4/fTfM59PQfhWlzxSmivkKtR1ZuctWz9Ew9CNCmoR6BRRRWZsFFFFABRRRQAUUZpevA5PoKdnewr23EoqxFYzy4whCnu3FXItJAwZnLewrspYCtV2WndmUq8I9TLUFzhQST2AzVyDTJpOX/dr78mtaK3jhGERVHsKlr1aGUwWtR38jmnim9I6Fa3sYrf7q5b1PNWMUtFetCnGCtFWOZtt3bCiiitBBRRRQAUUUUAFFFFABRRRQAUUUUAFFFFABRRRQAUUtFACUUtFACUUtFACUUtFACUUtFACUUtFACUUtFACUUtFACUUtFACYoxS0UAJimNGrjDKGHoRT6KBNX3Ma68K6Rd8yWUatnO5BsP6YrIufh3Zv/x73U8R/wBrDV2FLRYwnhaNT4onnM/w+1BNxguYJR2BBUn+dZ03hDWrfH+h+Z/1zcGvVqSlyo5J5XQe1zx6XRdThIElhcJk4yUyOfcV2GnWQ0+xjt05IGWb1Y9a3tX/ANR/wIfzrNHf6n+deFm8mkodDsyrCU6E5SWolLzQKdXg3PoLjcH0NHPpT/Sk/wAaFqxXGgE9FJ+gpywTNwsTn8MVLa/erWg7V3YTDRrvXQwnWcVoZS6fcv8A8s8f7xqdNHkP35FA9hWvRXtwymhHe7OWWJm9ihHpMK/eLOfc1ajt4ouERV+gqWkrshh6VP4YmTnJ7sXFGKWityRKKWigBKKWigBKKWigBKKWigBKKWigBKKWigBKKWigBKKWigBKKWigBKKWigD/2Q==;fontStyle=1;fontSize=16;" vertex="1" parent="1">
          <mxGeometry x="-200" y="140" width="93.2" height="93" as="geometry" />
        </mxCell>
        <mxCell id="LeKOd0B0I7q2kmfON0pF-41" style="edgeStyle=orthogonalEdgeStyle;rounded=0;orthogonalLoop=1;jettySize=auto;html=1;" edge="1" parent="1" source="LeKOd0B0I7q2kmfON0pF-5">
          <mxGeometry relative="1" as="geometry">
            <mxPoint x="340" y="186.5" as="targetPoint" />
          </mxGeometry>
        </mxCell>
        <mxCell id="LeKOd0B0I7q2kmfON0pF-5" value="网关" style="rounded=0;whiteSpace=wrap;html=1;fillColor=#0050ef;strokeColor=#001DBC;fontColor=#ffffff;fontStyle=1;fontSize=16;" vertex="1" parent="1">
          <mxGeometry x="50.00000000000001" y="156.5" width="120" height="60" as="geometry" />
        </mxCell>
        <mxCell id="LeKOd0B0I7q2kmfON0pF-7" value="发送请求" style="text;html=1;align=center;verticalAlign=middle;whiteSpace=wrap;rounded=0;fontStyle=1;fontSize=16;" vertex="1" parent="1">
          <mxGeometry x="-80.00000000000001" y="90" width="86.8" height="30" as="geometry" />
        </mxCell>
        <mxCell id="LeKOd0B0I7q2kmfON0pF-8" value="请求头Authorization=jwt" style="text;html=1;align=center;verticalAlign=middle;whiteSpace=wrap;rounded=0;fontStyle=1;fontSize=16;" vertex="1" parent="1">
          <mxGeometry x="-70.00000000000001" y="140" width="76.8" height="30" as="geometry" />
        </mxCell>
        <mxCell id="LeKOd0B0I7q2kmfON0pF-49" style="edgeStyle=orthogonalEdgeStyle;rounded=0;orthogonalLoop=1;jettySize=auto;html=1;entryX=0.5;entryY=0;entryDx=0;entryDy=0;" edge="1" parent="1" source="LeKOd0B0I7q2kmfON0pF-9" target="LeKOd0B0I7q2kmfON0pF-10">
          <mxGeometry relative="1" as="geometry" />
        </mxCell>
        <mxCell id="LeKOd0B0I7q2kmfON0pF-9" value="购物车模块:8082" style="rounded=1;whiteSpace=wrap;html=1;fillColor=#f8cecc;strokeColor=#b85450;fontStyle=1;fontSize=16;" vertex="1" parent="1">
          <mxGeometry x="570" y="85" width="120" height="60" as="geometry" />
        </mxCell>
        <mxCell id="LeKOd0B0I7q2kmfON0pF-10" value="商品模块:8081" style="rounded=1;whiteSpace=wrap;html=1;fillColor=#dae8fc;strokeColor=#6c8ebf;fontStyle=1;fontSize=16;" vertex="1" parent="1">
          <mxGeometry x="570" y="195" width="120" height="60" as="geometry" />
        </mxCell>
        <mxCell id="LeKOd0B0I7q2kmfON0pF-12" value="用户模块" style="rounded=1;whiteSpace=wrap;html=1;fillColor=#d5e8d4;strokeColor=#82b366;fontStyle=1;fontSize=16;" vertex="1" parent="1">
          <mxGeometry x="570" y="-25" width="120" height="60" as="geometry" />
        </mxCell>
        <mxCell id="LeKOd0B0I7q2kmfON0pF-28" style="edgeStyle=orthogonalEdgeStyle;rounded=0;orthogonalLoop=1;jettySize=auto;html=1;fontStyle=1;fontSize=16;" edge="1" parent="1" source="LeKOd0B0I7q2kmfON0pF-13" target="LeKOd0B0I7q2kmfON0pF-22">
          <mxGeometry relative="1" as="geometry" />
        </mxCell>
        <mxCell id="LeKOd0B0I7q2kmfON0pF-13" value="交易模块" style="rounded=1;whiteSpace=wrap;html=1;fillColor=#e1d5e7;strokeColor=#9673a6;fontStyle=1;fontSize=16;" vertex="1" parent="1">
          <mxGeometry x="570" y="305" width="120" height="60" as="geometry" />
        </mxCell>
        <mxCell id="LeKOd0B0I7q2kmfON0pF-14" value="订单模块" style="rounded=1;whiteSpace=wrap;html=1;fillColor=#fad7ac;strokeColor=#b46504;fontStyle=1;fontSize=16;" vertex="1" parent="1">
          <mxGeometry x="570" y="415" width="120" height="60" as="geometry" />
        </mxCell>
        <mxCell id="LeKOd0B0I7q2kmfON0pF-16" value="用户模块数据库" style="shape=cylinder3;whiteSpace=wrap;html=1;boundedLbl=1;backgroundOutline=1;size=15;fillColor=#d5e8d4;strokeColor=#82b366;fontStyle=1;fontSize=16;" vertex="1" parent="1">
          <mxGeometry x="770" y="-40" width="70" height="90" as="geometry" />
        </mxCell>
        <mxCell id="LeKOd0B0I7q2kmfON0pF-17" style="edgeStyle=orthogonalEdgeStyle;rounded=0;orthogonalLoop=1;jettySize=auto;html=1;entryX=0;entryY=0.5;entryDx=0;entryDy=0;entryPerimeter=0;fontStyle=1;fontSize=16;" edge="1" parent="1" source="LeKOd0B0I7q2kmfON0pF-12" target="LeKOd0B0I7q2kmfON0pF-16">
          <mxGeometry relative="1" as="geometry" />
        </mxCell>
        <mxCell id="LeKOd0B0I7q2kmfON0pF-18" value="购物车模块数据库" style="shape=cylinder3;whiteSpace=wrap;html=1;boundedLbl=1;backgroundOutline=1;size=15;fillColor=#f8cecc;strokeColor=#b85450;fontStyle=1;fontSize=16;" vertex="1" parent="1">
          <mxGeometry x="770" y="70" width="70" height="90" as="geometry" />
        </mxCell>
        <mxCell id="LeKOd0B0I7q2kmfON0pF-19" style="edgeStyle=orthogonalEdgeStyle;rounded=0;orthogonalLoop=1;jettySize=auto;html=1;entryX=0;entryY=0.5;entryDx=0;entryDy=0;entryPerimeter=0;fontStyle=1;fontSize=16;" edge="1" parent="1" source="LeKOd0B0I7q2kmfON0pF-9" target="LeKOd0B0I7q2kmfON0pF-18">
          <mxGeometry relative="1" as="geometry" />
        </mxCell>
        <mxCell id="LeKOd0B0I7q2kmfON0pF-20" value="商品模块数据库" style="shape=cylinder3;whiteSpace=wrap;html=1;boundedLbl=1;backgroundOutline=1;size=15;fillColor=#dae8fc;strokeColor=#6c8ebf;fontStyle=1;fontSize=16;" vertex="1" parent="1">
          <mxGeometry x="770" y="180" width="70" height="90" as="geometry" />
        </mxCell>
        <mxCell id="LeKOd0B0I7q2kmfON0pF-22" value="交易模块数据库" style="shape=cylinder3;whiteSpace=wrap;html=1;boundedLbl=1;backgroundOutline=1;size=15;fillColor=#e1d5e7;strokeColor=#9673a6;fontStyle=1;fontSize=16;" vertex="1" parent="1">
          <mxGeometry x="770" y="290" width="70" height="90" as="geometry" />
        </mxCell>
        <mxCell id="LeKOd0B0I7q2kmfON0pF-24" style="edgeStyle=orthogonalEdgeStyle;rounded=0;orthogonalLoop=1;jettySize=auto;html=1;entryX=0;entryY=0.5;entryDx=0;entryDy=0;entryPerimeter=0;fontStyle=1;fontSize=16;" edge="1" parent="1" source="LeKOd0B0I7q2kmfON0pF-10" target="LeKOd0B0I7q2kmfON0pF-20">
          <mxGeometry relative="1" as="geometry" />
        </mxCell>
        <mxCell id="LeKOd0B0I7q2kmfON0pF-26" value="订单模块数据库" style="shape=cylinder3;whiteSpace=wrap;html=1;boundedLbl=1;backgroundOutline=1;size=15;fillColor=#fad7ac;strokeColor=#b46504;fontStyle=1;fontSize=16;" vertex="1" parent="1">
          <mxGeometry x="770" y="400" width="70" height="90" as="geometry" />
        </mxCell>
        <mxCell id="LeKOd0B0I7q2kmfON0pF-27" style="edgeStyle=orthogonalEdgeStyle;rounded=0;orthogonalLoop=1;jettySize=auto;html=1;entryX=0;entryY=0.5;entryDx=0;entryDy=0;entryPerimeter=0;fontStyle=1;fontSize=16;" edge="1" parent="1" source="LeKOd0B0I7q2kmfON0pF-14" target="LeKOd0B0I7q2kmfON0pF-26">
          <mxGeometry relative="1" as="geometry" />
        </mxCell>
        <mxCell id="LeKOd0B0I7q2kmfON0pF-29" value="通用拦截器把网关传递的usef-info保存到threadLocal中" style="text;html=1;align=center;verticalAlign=middle;whiteSpace=wrap;rounded=0;fontStyle=1;fontSize=16;" vertex="1" parent="1">
          <mxGeometry y="-30" width="250" height="30" as="geometry" />
        </mxCell>
        <mxCell id="LeKOd0B0I7q2kmfON0pF-30" value="&lt;b&gt;&lt;font style=&quot;font-size: 16px;&quot;&gt;拦截器&lt;/font&gt;&lt;/b&gt;" style="rounded=0;whiteSpace=wrap;html=1;fillColor=#d5e8d4;strokeColor=#82b366;" vertex="1" parent="1">
          <mxGeometry x="414" y="-25" width="120" height="60" as="geometry" />
        </mxCell>
        <mxCell id="LeKOd0B0I7q2kmfON0pF-31" value="&lt;b&gt;&lt;font style=&quot;font-size: 16px;&quot;&gt;拦截器&lt;/font&gt;&lt;/b&gt;" style="rounded=0;whiteSpace=wrap;html=1;fillColor=#f8cecc;strokeColor=#b85450;" vertex="1" parent="1">
          <mxGeometry x="414" y="85" width="120" height="60" as="geometry" />
        </mxCell>
        <mxCell id="LeKOd0B0I7q2kmfON0pF-32" value="&lt;b&gt;&lt;font style=&quot;font-size: 16px;&quot;&gt;拦截器&lt;/font&gt;&lt;/b&gt;" style="rounded=0;whiteSpace=wrap;html=1;fillColor=#dae8fc;strokeColor=#6c8ebf;" vertex="1" parent="1">
          <mxGeometry x="414" y="200" width="120" height="60" as="geometry" />
        </mxCell>
        <mxCell id="LeKOd0B0I7q2kmfON0pF-33" value="&lt;b&gt;&lt;font style=&quot;font-size: 16px;&quot;&gt;拦截器&lt;/font&gt;&lt;/b&gt;" style="rounded=0;whiteSpace=wrap;html=1;fillColor=#e1d5e7;strokeColor=#9673a6;" vertex="1" parent="1">
          <mxGeometry x="414" y="305" width="120" height="60" as="geometry" />
        </mxCell>
        <mxCell id="LeKOd0B0I7q2kmfON0pF-34" value="&lt;b&gt;&lt;font style=&quot;font-size: 16px;&quot;&gt;拦截器&lt;/font&gt;&lt;/b&gt;" style="rounded=0;whiteSpace=wrap;html=1;fillColor=#fad7ac;strokeColor=#b46504;" vertex="1" parent="1">
          <mxGeometry x="414" y="415" width="120" height="60" as="geometry" />
        </mxCell>
        <mxCell id="LeKOd0B0I7q2kmfON0pF-36" value="&lt;span style=&quot;font-size: 16px;&quot;&gt;&lt;b&gt;通用模块&lt;/b&gt;&lt;/span&gt;" style="rounded=0;whiteSpace=wrap;html=1;fillColor=#d80073;strokeColor=#A50040;fontColor=#ffffff;" vertex="1" parent="1">
          <mxGeometry x="220" y="-170" width="140" height="60" as="geometry" />
        </mxCell>
        <mxCell id="LeKOd0B0I7q2kmfON0pF-39" value="&lt;font color=&quot;#ff3333&quot;&gt;通用模块写拦截器，其他微服务要用到则直接引入&lt;/font&gt;" style="text;html=1;align=center;verticalAlign=middle;whiteSpace=wrap;rounded=0;fontStyle=1;fontSize=16;" vertex="1" parent="1">
          <mxGeometry x="360" y="-210" width="250" height="30" as="geometry" />
        </mxCell>
        <mxCell id="LeKOd0B0I7q2kmfON0pF-40" value="Authorication=jwt" style="text;html=1;align=center;verticalAlign=middle;whiteSpace=wrap;rounded=0;fontStyle=1;fontSize=16;" vertex="1" parent="1">
          <mxGeometry x="200" y="140" width="90" height="30" as="geometry" />
        </mxCell>
        <mxCell id="LeKOd0B0I7q2kmfON0pF-42" value="user-info=1" style="text;html=1;align=center;verticalAlign=middle;whiteSpace=wrap;rounded=0;fontStyle=1;fontSize=16;" vertex="1" parent="1">
          <mxGeometry x="180" y="195" width="130" height="30" as="geometry" />
        </mxCell>
        <mxCell id="LeKOd0B0I7q2kmfON0pF-43" value="&lt;font color=&quot;#ff3333&quot;&gt;网关进行登录拦截，并且通过设置请求头来传递用户信息给微服务，传递的是用户id&lt;/font&gt;" style="text;html=1;align=center;verticalAlign=middle;whiteSpace=wrap;rounded=0;fontStyle=1;fontSize=16;" vertex="1" parent="1">
          <mxGeometry x="33.3" y="255" width="183.4" height="30" as="geometry" />
        </mxCell>
        <mxCell id="LeKOd0B0I7q2kmfON0pF-44" value="&lt;span style=&quot;font-size: 16px;&quot;&gt;&lt;b&gt;ThreadLocal.set(1)存在一个线程中，每次请求都是一个独立的线程(线程池里面的线程循环使用)，假设有100个请求，线程池有20个线程，那么这100个请求循环利用这20个线程。假设前面20个请求已经把这20个线程都用过了，并且都存储了值，如果没有移除，并且set的值不能覆盖，后面的请求不断堆积，就会出现内存泄漏。&lt;/b&gt;&lt;/span&gt;" style="rounded=0;whiteSpace=wrap;html=1;fillColor=#d5e8d4;strokeColor=#82b366;" vertex="1" parent="1">
          <mxGeometry x="410" y="-170" width="440" height="130" as="geometry" />
        </mxCell>
        <mxCell id="LeKOd0B0I7q2kmfON0pF-48" style="edgeStyle=orthogonalEdgeStyle;rounded=0;orthogonalLoop=1;jettySize=auto;html=1;" edge="1" parent="1" source="LeKOd0B0I7q2kmfON0pF-46">
          <mxGeometry relative="1" as="geometry">
            <mxPoint x="110" y="310" as="targetPoint" />
          </mxGeometry>
        </mxCell>
        <mxCell id="LeKOd0B0I7q2kmfON0pF-46" value="&lt;div class=&quot;lake-content&quot;&gt;&lt;span style=&quot;color: rgb(223, 42, 63);&quot; class=&quot;ne-text&quot;&gt;&lt;b&gt;&lt;font style=&quot;font-size: 16px;&quot;&gt;网关校验JWT之后，如何将用户信息传递给微服务&lt;/font&gt;&lt;/b&gt;&lt;/span&gt;&lt;/div&gt;" style="text;html=1;align=center;verticalAlign=middle;whiteSpace=wrap;rounded=0;" vertex="1" parent="1">
          <mxGeometry x="21.649999999999984" y="400" width="176.7" height="30" as="geometry" />
        </mxCell>
        <mxCell id="LeKOd0B0I7q2kmfON0pF-50" value="&lt;font color=&quot;#ff3333&quot;&gt;Feign发送请求的时候携带用户信息RequestInterceptor&lt;/font&gt;" style="text;html=1;align=center;verticalAlign=middle;whiteSpace=wrap;rounded=0;fontStyle=1;fontSize=16;" vertex="1" parent="1">
          <mxGeometry x="470" y="150" width="350" height="30" as="geometry" />
        </mxCell>
      </root>
    </mxGraphModel>
  </diagram>
</mxfile>
